<svg width="65" height="64" viewBox="0 0 65 64" fill="none" xmlns="http://www.w3.org/2000/svg">
<g id="vuesax/bulk/bezier">
<g id="bezier">
<path id="Vector" d="M8.50008 24.0002C11.4456 24.0002 13.8334 21.6123 13.8334 18.6668C13.8334 15.7213 11.4456 13.3335 8.50008 13.3335C5.55456 13.3335 3.16675 15.7213 3.16675 18.6668C3.16675 21.6123 5.55456 24.0002 8.50008 24.0002Z" fill="#EDC85D"/>
<path id="Vector_2" d="M56.5001 24.0002C59.4456 24.0002 61.8334 21.6123 61.8334 18.6668C61.8334 15.7213 59.4456 13.3335 56.5001 13.3335C53.5546 13.3335 51.1667 15.7213 51.1667 18.6668C51.1667 21.6123 53.5546 24.0002 56.5001 24.0002Z" fill="#EDC85D"/>
<path id="Vector_3" d="M24.5002 16.667H13.8335C12.7402 16.667 11.8335 17.5737 11.8335 18.667C11.8335 19.7603 12.7402 20.667 13.8335 20.667H20.6868C15.2202 24.7203 11.8335 31.4403 11.8335 38.667C11.8335 39.2003 11.8602 39.7071 11.9402 40.2404C12.0468 41.2537 12.9268 42.0003 13.9135 42.0003C13.9935 42.0003 14.0735 42.0003 14.1535 42.0003C15.2468 41.867 16.0468 40.8803 15.9135 39.7869C15.8602 39.4136 15.8602 39.067 15.8602 38.6937C15.8602 31.7604 19.6202 25.3603 25.4335 22.4269C26.4202 21.9203 26.8202 20.7204 26.3135 19.7337C26.2868 19.7071 26.2602 19.6803 26.2602 19.6536C26.4202 19.3603 26.5535 19.0404 26.5535 18.6937C26.5002 17.5737 25.5935 16.667 24.5002 16.667Z" fill="#43423E"/>
<path id="Vector_4" d="M44.3136 20.667H51.1669C52.2602 20.667 53.1669 19.7603 53.1669 18.667C53.1669 17.5737 52.2602 16.667 51.1669 16.667H40.5002C39.4069 16.667 38.5002 17.5737 38.5002 18.667C38.5002 19.0137 38.6069 19.3336 38.7936 19.627C38.7669 19.6536 38.7402 19.6804 38.7402 19.707C38.2336 20.6937 38.6336 21.8937 39.6202 22.4004C45.4336 25.3337 49.1936 31.7337 49.1936 38.667C49.1936 39.0403 49.1669 39.3869 49.1402 39.7603C49.0069 40.8536 49.8069 41.8403 50.9002 41.9736C50.9802 41.9736 51.0602 41.9736 51.1402 41.9736C52.1536 41.9736 53.0069 41.227 53.1136 40.2137C53.1669 39.6804 53.2202 39.1736 53.2202 38.6403C53.1669 31.4403 49.7802 24.7203 44.3136 20.667Z" fill="#43423E"/>
<path id="Vector_5" d="M20.5001 44V49.3333C20.5001 50.96 19.5134 52.3733 18.1267 52.96C17.6201 53.2 17.0867 53.3333 16.5001 53.3333H11.1667C8.95341 53.3333 7.16675 51.5467 7.16675 49.3333V44C7.16675 41.7867 8.95341 40 11.1667 40H16.5001C18.7134 40 20.5001 41.7867 20.5001 44Z" fill="#EDC85D"/>
<path id="Vector_6" d="M57.8333 44V49.3333C57.8333 51.5467 56.0467 53.3333 53.8333 53.3333H48.5C47.9133 53.3333 47.38 53.2 46.8733 52.96C45.4867 52.3733 44.5 50.96 44.5 49.3333V44C44.5 41.7867 46.2867 40 48.5 40H53.8333C56.0467 40 57.8333 41.7867 57.8333 44Z" fill="#EDC85D"/>
<path id="Vector_7" d="M40.5 14.6665V22.6665C40.5 24.8532 38.6867 26.6665 36.5 26.6665H28.5C26.3133 26.6665 24.5 24.8532 24.5 22.6665V14.6665C24.5 12.4798 26.3133 10.6665 28.5 10.6665H36.5C38.6867 10.6665 40.5 12.4798 40.5 14.6665Z" fill="#EDC85D"/>
</g>
</g>
</svg>
