<svg width="65" height="64" viewBox="0 0 65 64" fill="none" xmlns="http://www.w3.org/2000/svg">
<g id="vuesax/bulk/code-circle">
<g id="code-circle">
<path id="Vector" d="M32.4999 58.6668C47.2275 58.6668 59.1666 46.7278 59.1666 32.0002C59.1666 17.2726 47.2275 5.3335 32.4999 5.3335C17.7723 5.3335 5.83325 17.2726 5.83325 32.0002C5.83325 46.7278 17.7723 58.6668 32.4999 58.6668Z" fill="#43423E"/>
<g id="Group">
<path id="Vector_2" d="M21.8333 39.3334C21.3266 39.3334 20.8199 39.1468 20.4199 38.7468L15.0866 33.4135C14.3133 32.6402 14.3133 31.36 15.0866 30.5867L20.4199 25.2533C21.1933 24.48 22.4733 24.48 23.2466 25.2533C24.0199 26.0267 24.0199 27.3068 23.2466 28.0802L19.3266 32.0001L23.2466 35.92C24.0199 36.6933 24.0199 37.9735 23.2466 38.7468C22.8466 39.1468 22.3399 39.3334 21.8333 39.3334Z" fill="#EDC85D"/>
</g>
<g id="Group_2">
<path id="Vector_3" d="M43.1667 39.3334C42.66 39.3334 42.1533 39.1468 41.7533 38.7468C40.98 37.9735 40.98 36.6933 41.7533 35.92L45.6733 32.0001L41.7533 28.0802C40.98 27.3068 40.98 26.0267 41.7533 25.2533C42.5267 24.48 43.8067 24.48 44.58 25.2533L49.9133 30.5867C50.6867 31.36 50.6867 32.6402 49.9133 33.4135L44.58 38.7468C44.18 39.1468 43.6733 39.3334 43.1667 39.3334Z" fill="#EDC85D"/>
</g>
<g id="Group_3">
<path id="Vector_4" d="M29.8333 40.2134C29.5667 40.2134 29.3 40.16 29.06 40.0534C28.0467 39.6267 27.5667 38.4534 28.02 37.4134L33.3533 24.9599C33.78 23.9466 34.9533 23.4666 35.9667 23.9199C36.98 24.3466 37.46 25.52 37.0067 26.56L31.6733 39.0133C31.3533 39.76 30.6067 40.2134 29.8333 40.2134Z" fill="#EDC85D"/>
</g>
</g>
</g>
</svg>
