<svg width="65" height="64" viewBox="0 0 65 64" fill="none" xmlns="http://www.w3.org/2000/svg">
<g id="vuesax/bulk/graph">
<g id="graph">
<g id="graph_2">
<path id="Vector" d="M58.2866 18.5334C56.5799 12.7467 51.7533 7.92007 45.9666 6.2134C41.5666 4.9334 38.5266 5.04007 36.4199 6.6134C33.8866 8.50674 33.5933 11.9201 33.5933 14.3467V20.9867C33.5933 27.5467 36.5799 30.8801 42.4466 30.8801H50.0999C52.4999 30.8801 55.9399 30.5867 57.8333 28.0534C59.4599 25.9734 59.5933 22.9334 58.2866 18.5334Z" fill="#EDC85D"/>
<path id="Vector_2" d="M50.9266 35.6266C50.2333 34.8266 49.22 34.3732 48.18 34.3732H38.6333C33.94 34.3732 30.1266 30.5599 30.1266 25.8666V16.3199C30.1266 15.2799 29.6733 14.2666 28.8733 13.5732C28.1 12.8799 27.0333 12.5599 26.02 12.6932C19.7533 13.4932 13.9933 16.9332 10.2333 22.1066C6.44664 27.3066 5.05997 33.6532 6.25997 39.9999C7.99331 49.1732 15.3266 56.5066 24.5266 58.2399C25.9933 58.5332 27.46 58.6666 28.9266 58.6666C33.7533 58.6666 38.42 57.1732 42.3933 54.2666C47.5666 50.5066 51.0066 44.7466 51.8066 38.4799C51.94 37.4399 51.62 36.3999 50.9266 35.6266Z" fill="#43423E"/>
</g>
</g>
</g>
</svg>
