<svg width="55" height="58" viewBox="0 0 55 58" fill="none" xmlns="http://www.w3.org/2000/svg">
<path d="M48.3957 8.86217L31.7923 1.46717C29.3557 0.390501 25.6723 0.390501 23.2357 1.46717L6.63234 8.86217C2.43901 10.7322 1.81567 13.2822 1.81567 14.6422C1.81567 16.0022 2.43901 18.5522 6.63234 20.4222L23.2357 27.8172C24.454 28.3555 25.984 28.6388 27.514 28.6388C29.044 28.6388 30.574 28.3555 31.7923 27.8172L48.3957 20.4222C52.589 18.5522 53.2123 16.0022 53.2123 14.6422C53.2123 13.2822 52.6173 10.7322 48.3957 8.86217Z" fill="#EDC85D"/>
<path d="M27.5141 43.2872C26.4374 43.2872 25.3607 43.0605 24.3691 42.6355L5.2724 34.1355C2.35407 32.8322 0.0874023 29.3472 0.0874023 26.1455C0.0874023 24.9838 1.0224 24.0488 2.18407 24.0488C3.34574 24.0488 4.28074 24.9838 4.28074 26.1455C4.28074 27.6755 5.55574 29.6588 6.9724 30.2822L26.0691 38.7822C26.9757 39.1788 28.0241 39.1788 28.9307 38.7822L48.0274 30.2822C49.4441 29.6588 50.7191 27.7038 50.7191 26.1455C50.7191 24.9838 51.6541 24.0488 52.8157 24.0488C53.9774 24.0488 54.9124 24.9838 54.9124 26.1455C54.9124 29.3188 52.6457 32.8322 49.7274 34.1355L30.6307 42.6355C29.6674 43.0605 28.5907 43.2872 27.5141 43.2872Z" fill="#43423E"/>
<path d="M27.5141 57.3404C26.4374 57.3404 25.3607 57.1137 24.3691 56.6887L5.2724 48.1887C2.1274 46.8004 0.0874023 43.6554 0.0874023 40.1987C0.0874023 39.0371 1.0224 38.1021 2.18407 38.1021C3.34574 38.1021 4.28074 39.0371 4.28074 40.1987C4.28074 41.9837 5.32907 43.5987 6.9724 44.3354L26.0691 52.8354C26.9757 53.232 28.0241 53.232 28.9307 52.8354L48.0274 44.3354C49.6424 43.627 50.7191 41.9837 50.7191 40.1987C50.7191 39.0371 51.6541 38.1021 52.8157 38.1021C53.9774 38.1021 54.9124 39.0371 54.9124 40.1987C54.9124 43.6554 52.8724 46.7721 49.7274 48.1887L30.6307 56.6887C29.6674 57.1137 28.5907 57.3404 27.5141 57.3404Z" fill="#43423E"/>
</svg>
