<svg width="352" height="308" viewBox="0 0 352 308" fill="none" xmlns="http://www.w3.org/2000/svg">
<rect width="351" height="308" transform="translate(0.5 0.000488281)" fill="#282828"/>
<path opacity="0.4" d="M191.333 102.083V139.167H183.917C171.679 139.167 161.667 149.179 161.667 161.417V168.833H124.583C112.272 168.833 102.333 158.895 102.333 146.583V102.083C102.333 89.7716 112.272 79.8333 124.583 79.8333H169.083C181.395 79.8333 191.333 89.7716 191.333 102.083Z" fill="#F9F6E2"/>
<path d="M126.067 114.173C124.361 114.173 122.581 113.357 121.542 111.799C119.762 109.278 120.356 105.792 122.877 104.012C128.662 99.9327 136.45 99.8584 142.309 103.863C144.831 105.569 145.498 109.055 143.792 111.577C142.087 114.099 138.601 114.766 136.079 113.06C134.077 111.725 131.407 111.725 129.404 113.134C128.292 113.876 127.179 114.173 126.067 114.173Z" fill="#F9F6E2"/>
<path d="M155.733 114.173C154.027 114.173 152.247 113.357 151.209 111.799C149.429 109.278 150.022 105.792 152.544 104.012C158.329 99.9327 166.117 99.8584 171.976 103.863C174.497 105.569 175.165 109.055 173.459 111.577C171.753 114.099 168.267 114.766 165.746 113.06C163.743 111.725 161.073 111.725 159.071 113.134C157.958 113.876 156.846 114.173 155.733 114.173Z" fill="#F9F6E2"/>
<path d="M148.02 155.261H130.813C125.548 155.261 121.246 150.959 121.246 145.693C121.246 131.602 132.742 120.106 146.833 120.106C152.618 120.106 158.329 122.108 162.853 125.742C165.227 127.671 165.672 131.157 163.743 133.53C161.815 135.903 158.329 136.348 155.956 134.42C153.36 132.343 150.245 131.231 146.908 131.231C139.491 131.231 133.335 136.867 132.519 144.136H148.094C151.135 144.136 153.657 146.657 153.657 149.698C153.657 152.739 151.061 155.261 148.02 155.261Z" fill="#F9F6E2"/>
<path d="M222.632 188.71C222.112 188.117 221.371 187.82 220.555 187.82H191.778C190.962 187.82 190.221 188.117 189.702 188.71C189.182 189.303 188.886 190.119 189.034 190.861C189.998 199.612 197.341 206.287 206.167 206.287C214.992 206.287 222.335 199.687 223.299 190.861C223.373 190.045 223.151 189.303 222.632 188.71Z" fill="#F9F6E2"/>
<path d="M228.417 139.167H183.917C171.679 139.167 161.667 149.179 161.667 161.417V205.917C161.667 218.154 171.679 228.167 183.917 228.167H228.417C240.654 228.167 250.667 218.154 250.667 205.917V161.417C250.667 149.179 240.654 139.167 228.417 139.167ZM180.876 162.677C182.656 160.156 186.142 159.563 188.663 161.343C190.666 162.752 193.336 162.752 195.338 161.417C197.86 159.637 201.346 160.304 203.052 162.9C204.758 165.422 204.164 168.908 201.568 170.613C198.676 172.542 195.338 173.58 192.001 173.58C188.515 173.58 185.103 172.542 182.211 170.465C179.689 168.611 179.096 165.125 180.876 162.677ZM206.167 214.594C192.075 214.594 180.579 203.098 180.579 189.007C180.579 183.741 184.881 179.439 190.147 179.439H222.187C227.453 179.439 231.754 183.741 231.754 189.007C231.754 203.098 220.258 214.594 206.167 214.594ZM231.235 170.539C228.343 172.467 225.005 173.506 221.668 173.506C218.182 173.506 214.77 172.468 211.878 170.391C209.356 168.611 208.763 165.125 210.543 162.603C212.323 160.082 215.808 159.488 218.33 161.268C220.333 162.677 223.003 162.678 225.005 161.343C227.527 159.563 231.013 160.23 232.718 162.826C234.424 165.422 233.757 168.833 231.235 170.539Z" fill="#F9F6E2"/>
</svg>
