 <svg width="352" height="308" viewBox="0 0 352 308" fill="none" xmlns="http://www.w3.org/2000/svg">
<rect width="351" height="308" transform="translate(0.5 0.000488281)" fill="#282828"/>
<path opacity="0.4" d="M127.031 209.032C126.215 209.032 125.325 208.809 124.583 208.438L108.118 200.206C106.264 199.242 105.078 197.313 105.078 195.237V174.618C105.078 171.578 107.599 169.056 110.64 169.056C113.681 169.056 116.203 171.578 116.203 174.618V191.751L129.627 198.426C132.371 199.835 133.483 203.173 132.148 205.917C131.036 207.845 129.108 209.032 127.031 209.032Z" fill="#F9F6E2"/>
<path d="M176.5 233.729C176.055 233.729 175.61 233.655 175.239 233.581C174.794 233.507 174.349 233.284 173.904 233.062L157.513 224.903C154.769 223.494 153.657 220.157 154.992 217.413C156.401 214.668 159.738 213.556 162.483 214.891L170.938 219.118V207.548C170.938 204.508 173.459 201.986 176.5 201.986C179.541 201.986 182.063 204.508 182.063 207.548V219.118L190.517 214.891C193.262 213.556 196.599 214.668 198.008 217.413C199.418 220.157 198.305 223.494 195.487 224.903L179.096 233.062C178.651 233.284 178.206 233.432 177.761 233.581C177.316 233.655 176.945 233.729 176.5 233.729Z" fill="#F9F6E2"/>
<path opacity="0.4" d="M225.969 209.032C223.967 209.032 221.964 207.919 221 205.991C219.591 203.247 220.703 199.909 223.522 198.5L236.946 191.825V174.692C236.946 171.652 239.467 169.13 242.508 169.13C245.549 169.13 248.071 171.652 248.071 174.692V195.311C248.071 197.387 246.884 199.316 245.03 200.28L228.565 208.512C227.601 208.809 226.785 209.032 225.969 209.032Z" fill="#F9F6E2"/>
<path d="M176.5 171.948C173.459 171.948 170.938 169.427 170.938 166.386V149.253L157.513 142.578C154.769 141.169 153.657 137.832 154.992 135.088C156.401 132.343 159.738 131.231 162.483 132.566L176.5 139.538L190.517 132.566C193.262 131.231 196.599 132.269 198.008 135.088C199.418 137.832 198.305 141.169 195.487 142.578L182.063 149.253V166.386C182.063 169.427 179.541 171.948 176.5 171.948Z" fill="#F9F6E2"/>
<path opacity="0.4" d="M110.566 138.944C107.525 138.944 105.003 136.423 105.003 133.382V112.912V112.837C105.003 112.392 105.078 111.947 105.152 111.577C105.3 110.983 105.523 110.464 105.819 109.945C106.042 109.574 106.264 109.277 106.561 108.981C106.858 108.684 107.228 108.388 107.599 108.165C107.748 108.091 107.97 107.942 108.118 107.868L124.509 99.7099C127.253 98.3749 130.591 99.4134 132 102.232C133.409 104.976 132.297 108.313 129.478 109.722L122.952 112.986L129.478 116.249C132.223 117.658 133.335 120.996 132 123.74C130.665 126.484 127.253 127.597 124.509 126.262L116.054 122.034V133.604C116.128 136.497 113.681 138.944 110.566 138.944Z" fill="#F9F6E2"/>
<path d="M192.965 93.6284C192.149 93.6284 191.259 93.4059 190.517 93.035L176.5 86.0633L162.482 93.035C159.738 94.4442 156.401 93.3317 154.992 90.5134C153.582 87.7692 154.695 84.4317 157.513 83.0225L173.978 74.7901C175.536 73.9743 177.39 73.9743 178.947 74.7901L195.412 83.0225C198.157 84.4317 199.269 87.7692 197.934 90.5134C196.97 92.5159 195.042 93.6284 192.965 93.6284Z" fill="#F9F6E2"/>
<path opacity="0.4" d="M242.434 138.944C239.393 138.944 236.872 136.423 236.872 133.382V121.812L228.417 126.039C225.673 127.448 222.335 126.336 220.926 123.518C219.517 120.773 220.629 117.436 223.448 116.027L229.974 112.763L223.448 109.5C220.703 108.091 219.591 104.753 220.926 102.009C222.261 99.2651 225.673 98.1525 228.417 99.4875L244.808 107.646C244.956 107.72 245.178 107.794 245.327 107.942C245.772 108.165 246.143 108.536 246.513 108.907C246.736 109.203 246.958 109.5 247.181 109.797C247.478 110.316 247.7 110.835 247.848 111.428C247.923 111.873 247.997 112.318 247.997 112.689V112.763V133.233C247.997 136.497 245.475 138.944 242.434 138.944Z" fill="#F9F6E2"/>
</svg>
