<svg width="69" height="68" viewBox="0 0 69 68" fill="none" xmlns="http://www.w3.org/2000/svg">
<path d="M46.5132 5.6665H22.4866C14.6666 5.6665 11.8333 8.49984 11.8333 16.4615V51.5382C11.8333 59.4998 14.6666 62.3332 22.4866 62.3332H46.4849C54.3332 62.3332 57.1666 59.4998 57.1666 51.5382V16.4615C57.1666 8.49984 54.3333 5.6665 46.5132 5.6665Z" fill="#060508"/>
<path d="M40.1668 17.7085H28.8335C27.6718 17.7085 26.7085 16.7452 26.7085 15.5835C26.7085 14.4218 27.6718 13.4585 28.8335 13.4585H40.1668C41.3285 13.4585 42.2918 14.4218 42.2918 15.5835C42.2918 16.7452 41.3285 17.7085 40.1668 17.7085Z" fill="#EDC85D"/>
<path d="M34.4998 54.6833C37.2382 54.6833 39.4582 52.4633 39.4582 49.7249C39.4582 46.9865 37.2382 44.7666 34.4998 44.7666C31.7614 44.7666 29.5415 46.9865 29.5415 49.7249C29.5415 52.4633 31.7614 54.6833 34.4998 54.6833Z" fill="#EDC85D"/>
</svg>
