<svg width="69" height="68" viewBox="0 0 69 68" fill="none" xmlns="http://www.w3.org/2000/svg">
<path d="M62.7484 18.1615V36.5782H6.16675V18.1615C6.16675 11.2765 11.7767 5.6665 18.6617 5.6665H50.2534C57.1384 5.6665 62.7484 11.2765 62.7484 18.1615Z" fill="#43423E"/>
<path d="M6.16675 36.6064V37.1731C6.16675 44.0864 11.7767 49.6681 18.6617 49.6681H29.5417C31.1001 49.6681 32.3751 50.9431 32.3751 52.5014V55.2498C32.3751 56.8081 31.1001 58.0831 29.5417 58.0831H22.6851C21.5234 58.0831 20.5601 59.0464 20.5601 60.2081C20.5601 61.3698 21.4951 62.3331 22.6851 62.3331H46.3434C47.5051 62.3331 48.4684 61.3698 48.4684 60.2081C48.4684 59.0464 47.5051 58.0831 46.3434 58.0831H39.4868C37.9284 58.0831 36.6534 56.8081 36.6534 55.2498V52.5014C36.6534 50.9431 37.9284 49.6681 39.4868 49.6681H50.2817C57.1951 49.6681 62.7767 44.0581 62.7767 37.1731V36.6064H6.16675Z" fill="#EDC85D"/>
</svg>
