<svg width="24" height="25" viewBox="0 0 24 25" fill="none" xmlns="http://www.w3.org/2000/svg">
<g id="vuesax/bulk/link-circle">
<g id="link-circle">
<path id="Vector" opacity="0.4" d="M12 22.3446C17.5228 22.3446 22 17.8675 22 12.3446C22 6.82176 17.5228 2.3446 12 2.3446C6.47715 2.3446 2 6.82176 2 12.3446C2 17.8675 6.47715 22.3446 12 22.3446Z" fill="#C3C3C3"/>
<g id="Group">
<path id="Vector_2" d="M7.94023 15.6047C7.85023 15.6047 7.77022 15.5946 7.68022 15.5546C6.87022 15.2546 6.19022 14.6646 5.76022 13.8946C4.76022 12.0946 5.38023 9.74465 7.13023 8.65465L9.47023 7.20464C10.3302 6.67464 11.3402 6.51467 12.3002 6.76467C13.2602 7.01467 14.0702 7.64464 14.5602 8.52464C15.5602 10.3246 14.9402 12.6747 13.1902 13.7647L12.9302 13.9546C12.5902 14.1946 12.1202 14.1147 11.8802 13.7847C11.6402 13.4447 11.7202 12.9747 12.0502 12.7347L12.3602 12.5147C13.4802 11.8147 13.8602 10.3647 13.2502 9.25466C12.9602 8.73466 12.4902 8.36465 11.9302 8.21465C11.3702 8.06465 10.7802 8.15466 10.2702 8.47466L7.93022 9.92464C6.85022 10.5946 6.47023 12.0447 7.08023 13.1647C7.33023 13.6147 7.73023 13.9646 8.21023 14.1446C8.60023 14.2846 8.80022 14.7147 8.65022 15.1047C8.54022 15.4147 8.25023 15.6047 7.94023 15.6047Z" fill="#C3C3C3"/>
</g>
<g id="Group_2">
<path id="Vector_3" d="M12.66 17.9946C12.36 17.9946 12.05 17.9546 11.75 17.8746C10.79 17.6246 9.97997 16.9946 9.49997 16.1146C8.49997 14.3146 9.11996 11.9646 10.87 10.8746L11.13 10.6846C11.47 10.4446 11.94 10.5246 12.18 10.8546C12.42 11.1946 12.34 11.6646 12.01 11.9046L11.7 12.1246C10.58 12.8246 10.2 14.2746 10.81 15.3846C11.1 15.9046 11.57 16.2746 12.13 16.4246C12.69 16.5746 13.28 16.4846 13.79 16.1646L16.13 14.7146C17.21 14.0446 17.59 12.5946 16.98 11.4746C16.73 11.0246 16.33 10.6746 15.85 10.4946C15.46 10.3546 15.26 9.9246 15.41 9.5346C15.55 9.1446 15.99 8.94459 16.37 9.09459C17.18 9.39459 17.86 9.9846 18.29 10.7546C19.29 12.5546 18.67 14.9046 16.92 15.9946L14.58 17.4446C13.99 17.8046 13.33 17.9946 12.66 17.9946Z" fill="#C3C3C3"/>
</g>
</g>
</g>
</svg>
