<svg width="1137" height="321" viewBox="0 0 1137 321" fill="none" xmlns="http://www.w3.org/2000/svg">
<g opacity="0.05">
<path opacity="0.79" d="M852.197 439.095C1009.08 285.146 1009.08 35.5445 852.197 -118.405C695.312 -272.354 440.951 -272.355 284.066 -118.405C127.181 35.5443 127.181 285.146 284.066 439.096C440.951 593.045 695.312 593.045 852.197 439.095Z" stroke="#C3C3C3" stroke-width="0.7273" stroke-miterlimit="10"/>
<path opacity="0.79" d="M568.152 524.666C773.201 524.666 939.426 361.552 939.426 160.34C939.426 -40.8724 773.201 -203.987 568.152 -203.987C363.103 -203.987 196.878 -40.8724 196.878 160.34C196.878 361.552 363.103 524.666 568.152 524.666Z" stroke="#C3C3C3" stroke-width="0.9545" stroke-miterlimit="10"/>
<path opacity="0.79" d="M568.148 494.823C756.4 494.823 909.009 345.069 909.009 160.339C909.009 -24.3908 756.4 -174.144 568.148 -174.144C379.895 -174.144 227.286 -24.3908 227.286 160.339C227.286 345.069 379.895 494.823 568.148 494.823Z" stroke="#C3C3C3" stroke-width="1.1818" stroke-miterlimit="10"/>
<path opacity="0.79" d="M568.148 464.934C739.578 464.934 878.55 328.563 878.55 160.34C878.55 -7.88301 739.578 -144.255 568.148 -144.255C396.717 -144.255 257.745 -7.88301 257.745 160.34C257.745 328.563 396.717 464.934 568.148 464.934Z" stroke="#C3C3C3" stroke-width="1.4091" stroke-miterlimit="10"/>
<path opacity="0.79" d="M568.147 435.045C722.756 435.045 848.091 312.055 848.091 160.339C848.091 8.62404 722.756 -114.366 568.147 -114.366C413.539 -114.366 288.204 8.62404 288.204 160.339C288.204 312.055 413.539 435.045 568.147 435.045Z" stroke="#C3C3C3" stroke-width="1.6364" stroke-miterlimit="10"/>
<path opacity="0.79" d="M568.148 405.155C705.934 405.155 817.632 295.548 817.632 160.34C817.632 25.1316 705.934 -84.4763 568.148 -84.4763C430.362 -84.4763 318.664 25.1316 318.664 160.34C318.664 295.548 430.362 405.155 568.148 405.155Z" stroke="#C3C3C3" stroke-width="1.8636" stroke-miterlimit="10"/>
<path opacity="0.79" d="M568.148 375.266C689.112 375.266 787.173 279.04 787.173 160.339C787.173 41.6387 689.112 -54.5873 568.148 -54.5873C447.184 -54.5873 349.123 41.6387 349.123 160.339C349.123 279.04 447.184 375.266 568.148 375.266Z" stroke="#C3C3C3" stroke-width="2.0909" stroke-miterlimit="10"/>
<path opacity="0.79" d="M568.147 345.378C672.289 345.378 756.712 262.533 756.712 160.34C756.712 58.1468 672.289 -24.6974 568.147 -24.6974C464.005 -24.6974 379.581 58.1468 379.581 160.34C379.581 262.533 464.005 345.378 568.147 345.378Z" stroke="#C3C3C3" stroke-width="2.3182" stroke-miterlimit="10"/>
<path opacity="0.79" d="M568.147 315.488C655.467 315.488 726.254 246.026 726.254 160.34C726.254 74.6537 655.467 5.19141 568.147 5.19141C480.827 5.19141 410.041 74.6537 410.041 160.34C410.041 246.026 480.827 315.488 568.147 315.488Z" stroke="#C3C3C3" stroke-width="2.5454" stroke-miterlimit="10"/>
<path opacity="0.79" d="M568.147 285.599C638.645 285.599 695.795 229.518 695.795 160.34C695.795 91.1612 638.645 35.0808 568.147 35.0808C497.65 35.0808 440.5 91.1612 440.5 160.34C440.5 229.518 497.65 285.599 568.147 285.599Z" stroke="#C3C3C3" stroke-width="2.7727" stroke-miterlimit="10"/>
<path opacity="0.79" d="M568.148 255.709C621.824 255.709 665.336 213.011 665.336 160.34C665.336 107.669 621.824 64.9701 568.148 64.9701C514.473 64.9701 470.96 107.669 470.96 160.34C470.96 213.011 514.473 255.709 568.148 255.709Z" stroke="#C3C3C3" stroke-width="3" stroke-miterlimit="10"/>
</g>
</svg>
