<svg width="20" height="16" viewBox="0 0 20 16" fill="none" xmlns="http://www.w3.org/2000/svg">
<g id="002-twitter">
<path id="Path" d="M17.7833 3.89743L17.7953 4.40403C17.7953 9.57715 13.8382 15.537 6.60125 15.537C4.38005 15.537 2.3126 14.8894 0.570801 13.7788C0.878447 13.8146 1.19201 13.8345 1.50964 13.8345C3.35335 13.8345 5.04922 13.2087 6.39552 12.1597C4.6737 12.128 3.22148 10.9956 2.72012 9.44207C2.9618 9.48775 3.20551 9.50965 3.46118 9.50965C3.82074 9.50965 4.16827 9.46397 4.49786 9.37457C2.69811 9.01298 1.34182 7.43366 1.34182 5.53844V5.48878C1.87314 5.78279 2.47838 5.9576 3.12357 5.97949C2.06889 5.27822 1.37376 4.08028 1.37376 2.72341C1.37376 2.00626 1.56753 1.33479 1.90508 0.756697C3.84466 3.12473 6.74502 4.68222 10.0149 4.84514C9.94699 4.55904 9.91309 4.25908 9.91309 3.95317C9.91309 1.79374 11.6749 0.0415039 13.8482 0.0415039C14.9787 0.0415039 16.0015 0.516274 16.7205 1.27715C17.6154 1.10031 18.4584 0.774538 19.2194 0.327542C18.9258 1.2414 18.3026 2.00822 17.4896 2.49292C18.2826 2.39954 19.0437 2.18695 19.7488 1.87706C19.2215 2.65976 18.5523 3.34914 17.7833 3.89743Z" fill="black"/>
</g>
</svg>
