<svg width="21" height="21" viewBox="0 0 21 21" fill="none" xmlns="http://www.w3.org/2000/svg">
<g id="004-vimeo-social-logo">
<g id="logo-instagram">
<path id="Combined Shape" fill-rule="evenodd" clip-rule="evenodd" d="M6.62569 0.903423C7.69236 0.855353 8.03319 0.84375 10.749 0.84375C13.4649 0.84375 13.8057 0.855353 14.8724 0.903423C16.4974 0.977185 17.9249 1.37335 19.0707 2.51293C20.2165 3.65252 20.6149 5.07224 20.689 6.68838C20.7374 7.74924 20.749 8.08821 20.749 10.7892C20.749 13.4903 20.7374 13.8292 20.689 14.8901C20.6149 16.5062 20.2165 17.926 19.0707 19.0655C17.9249 20.2051 16.4974 20.6013 14.8724 20.6751C13.8057 20.7231 13.4649 20.7347 10.749 20.7347C8.03319 20.7347 7.69236 20.7231 6.62569 20.6751C5.00069 20.6013 3.57319 20.2051 2.42736 19.0655C1.28152 17.926 0.88319 16.5062 0.809023 14.8901C0.76069 13.8292 0.749023 13.4903 0.749023 10.7892C0.749023 8.08821 0.76069 7.74924 0.809023 6.68838C0.88319 5.07224 1.28152 3.65252 2.42736 2.51293C3.57319 1.37335 5.00069 0.977185 6.62569 0.903423ZM14.789 2.69376C13.7348 2.64569 13.4181 2.63574 10.7481 2.63574C8.07814 2.63574 7.76147 2.64569 6.7073 2.69376C5.56897 2.74514 4.51314 2.97223 3.70064 3.7803C2.88814 4.58837 2.6598 5.63845 2.60814 6.77058C2.5598 7.819 2.5498 8.13394 2.5498 10.7894C2.5498 13.4448 2.5598 13.7598 2.60814 14.8082C2.6598 15.9403 2.88814 16.9904 3.70064 17.7985C4.51314 18.6065 5.56897 18.8336 6.7073 18.885C7.76147 18.9331 8.07814 18.943 10.7481 18.943C13.4181 18.943 13.7348 18.9331 14.789 18.885C15.9273 18.8336 16.9831 18.6065 17.7956 17.7985C18.6081 16.9904 18.8365 15.9403 18.8881 14.8082C18.9365 13.7598 18.9465 13.4448 18.9465 10.7894C18.9465 8.13394 18.9365 7.819 18.8881 6.77058C18.8365 5.63845 18.6081 4.58837 17.7956 3.7803C16.9831 2.97223 15.9273 2.74514 14.789 2.69376ZM5.6123 10.7887C5.6123 7.96828 7.91147 5.68164 10.7473 5.68164C13.5831 5.68164 15.8823 7.96828 15.8823 10.7887C15.8823 13.609 13.5831 15.8957 10.7473 15.8957C7.91147 15.8957 5.6123 13.609 5.6123 10.7887ZM7.41309 10.7888C7.41309 12.6196 8.90558 14.104 10.7464 14.104C12.5872 14.104 14.0797 12.6196 14.0797 10.7888C14.0797 8.958 12.5872 7.47363 10.7464 7.47363C8.90558 7.47363 7.41309 8.958 7.41309 10.7888ZM17.2857 5.48057C17.2857 6.1397 16.7485 6.67403 16.0857 6.67403C15.423 6.67403 14.8857 6.1397 14.8857 5.48057C14.8857 4.82144 15.423 4.28711 16.0857 4.28711C16.7485 4.28711 17.2857 4.82144 17.2857 5.48057Z" fill="black"/>
</g>
</g>
</svg>
